<?xml version="1.0" encoding="UTF-8" standalone="no"?>
<svg
   xmlns:dc="http://purl.org/dc/elements/1.1/"
   xmlns:cc="http://creativecommons.org/ns#"
   xmlns:rdf="http://www.w3.org/1999/02/22-rdf-syntax-ns#"
   xmlns:svg="http://www.w3.org/2000/svg"
   xmlns="http://www.w3.org/2000/svg"
   xmlns:sodipodi="http://sodipodi.sourceforge.net/DTD/sodipodi-0.dtd"
   xmlns:inkscape="http://www.inkscape.org/namespaces/inkscape"
   version="1.1"
   x="0px"
   y="0px"
   viewBox="0 0 100 125"
   style="enable-background:new 0 0 100 100;"
   xml:space="preserve"
   id="svg861"
   sodipodi:docname="CivicBot.svg"
   inkscape:version="0.92.3 (2405546, 2018-03-11)"><metadata
     id="metadata867"><rdf:RDF><cc:Work
         rdf:about=""><dc:format>image/svg+xml</dc:format><dc:type
           rdf:resource="http://purl.org/dc/dcmitype/StillImage" /><dc:title></dc:title></cc:Work></rdf:RDF></metadata><defs
     id="defs865" /><sodipodi:namedview
     pagecolor="#ffffff"
     bordercolor="#666666"
     borderopacity="1"
     objecttolerance="10"
     gridtolerance="10"
     guidetolerance="10"
     inkscape:pageopacity="0"
     inkscape:pageshadow="2"
     inkscape:window-width="1871"
     inkscape:window-height="1019"
     id="namedview863"
     showgrid="false"
     inkscape:zoom="7.552"
     inkscape:cx="46.846996"
     inkscape:cy="66.288458"
     inkscape:window-x="1969"
     inkscape:window-y="27"
     inkscape:window-maximized="1"
     inkscape:current-layer="svg861" /><g
     id="g6127"
     transform="translate(12.976695,17.081568)"><path
       inkscape:connector-curvature="0"
       id="path1498-9"
       d="M 45.321747,81.411264 A 37.387921,37.005363 0 0 1 8.7187051,44.432754 37.387921,37.005363 0 0 1 45.321747,7.4659533 Z"
       style="opacity:1;fill:#74c93b;fill-opacity:1;stroke:none;stroke-width:1.40374601;stroke-linecap:square;stroke-linejoin:miter;stroke-miterlimit:4;stroke-dasharray:none;stroke-dashoffset:0;stroke-opacity:1;paint-order:fill markers stroke" /><path
       inkscape:connector-curvature="0"
       id="path1498-9-5"
       d="M 45.180953,82.111262 A 37.961758,37.192792 0 0 0 82.34578,44.945459 37.961758,37.192792 0 0 0 45.180953,7.7914243 Z"
       style="opacity:1;fill:#0aacd4;fill-opacity:1;stroke:none;stroke-width:1.41805506;stroke-linecap:square;stroke-linejoin:miter;stroke-miterlimit:4;stroke-dasharray:none;stroke-dashoffset:0;stroke-opacity:1;paint-order:fill markers stroke" /><path
       d="m 55.491797,33.432952 v -7.599999 c 0,-5.3 -4,-9.6 -9.2,-10.1 v -2.2 c 0,-0.6 -0.4,-1 -1,-1 -0.6,0 -1,0.4 -1,1 v 2.2 c -5.2,0.5 -9.2,4.9 -9.2,10.1 v 7.599999 c -10.7,0.500001 -14.6,9.100001 -14.6,17.200001 v 15.2 2.000001 0.7 c 0,2.5 2.1,4.6 4.6,4.6 h 0.5 c 2.4,0 4.3,-1.800001 4.6,-4.100001 0.6,1.000001 1.3,2.000001 2.1,2.900001 v 0.2 7.55662 c 1.864694,0.562129 6.372376,1.25821 11.812737,2.09622 l 0.187263,-5.25284 h 2.2 l -0.374527,5.57831 v 0 c 5.549176,-0.83053 6.885547,-0.96652 12.187264,-2.547161 0,-4.166666 0.187263,-3.464479 0.187263,-7.631149 v 0 c 0.8,-0.9 1.5,-1.800001 2.1,-2.800001 0.3,2.3 2.2,4.100001 4.6,4.100001 h 0.5 c 2.5,0 4.6,-2.1 4.6,-4.6 v -0.700001 -2 -15.3 c -0.2,-8.1 -4.1,-16.7 -14.8,-17.200001 z m -29.9,37.700002 c 31.67666,19.862986 15.83833,9.93149 0,0 z m 16.6,10.6 c 20.609994,12.796326 10.304997,6.398156 0,0 z m 6.2,0.1 c 16.47666,12.729646 8.23833,6.364826 0,0 z m 19.7,-16.000001 c 3.343327,23.396317 1.671664,11.698161 0,0 z"
       id="path849-2"
       inkscape:connector-curvature="0"
       sodipodi:nodetypes="cscssscscsccssscccccccccccccssscccccccccccc"
       style="fill:#b3b3b3;stroke-width:1" /><ellipse
       ry="7.3443465"
       rx="7.2119317"
       cy="49.331661"
       cx="45.288761"
       id="path1498-6"
       style="opacity:1;fill:#fe7e29;fill-opacity:1;stroke:none;stroke-width:0.27465841;stroke-linecap:square;stroke-linejoin:miter;stroke-miterlimit:4;stroke-dasharray:none;stroke-dashoffset:0;stroke-opacity:1;paint-order:fill markers stroke" /><g
       transform="translate(-6.3669579,-2.9861367)"
       id="g1518"><g
         id="g1496"
         transform="translate(4.3070593,-3.3707421)"><g
           id="g1418"><path
             inkscape:connector-curvature="0"
             id="path845"
             d="m 43.351695,44.589831 c 0.5,-0.1 0.9,-0.7 0.7,-1.2 -0.1,-0.5 -0.7,-0.9 -1.2,-0.7 -0.2,0.1 -5.5,1.5 -7.2,6.5 -0.2,0.5 0.1,1.1 0.6,1.3 0.1,0 0.2,0.1 0.3,0.1 0.4,0 0.8,-0.3 0.9,-0.7 1.5,-4.1 5.9,-5.3 5.9,-5.3 z" /><path
             inkscape:connector-curvature="0"
             id="path847"
             d="m 54.151695,77.389831 c 0.1,0 0.3,0 0.4,-0.1 1.7,-0.7 2.7,-1.6 3.4,-3.1 0.2,-0.5 0,-1.1 -0.5,-1.3 -0.5,-0.2 -1.1,0 -1.3,0.5 -0.4,1 -1.1,1.5 -2.3,2 -0.5,0.2 -0.8,0.8 -0.5,1.3 0,0.5 0.4,0.7 0.8,0.7 z" /><path
             sodipodi:nodetypes="cscssscscsccssscccccccccccccsssccccccccccccssssccccccsccsccscccsscccccccccccsccsccscsccccccccssssccscccccsccssccccccssssccsccccccc"
             inkscape:connector-curvature="0"
             id="path849"
             d="m 57.551695,39.789831 v -7.6 c 0,-5.3 -4,-9.6 -9.2,-10.1 v -2.2 c 0,-0.6 -0.4,-1 -1,-1 -0.6,0 -1,0.4 -1,1 v 2.2 c -5.2,0.5 -9.2,4.9 -9.2,10.1 v 7.6 c -10.7,0.5 -14.6,9.1 -14.6,17.2 v 15.2 2 0.7 c 0,2.5 2.1,4.6 4.6,4.6 h 0.5 c 2.4,0 4.3,-1.8 4.6,-4.1 0.6,1 1.3,2 2.1,2.9 v 0.2 c 0,3.35412 0,20.493077 0,7.556623 1.864694,0.562126 6.372376,1.258206 11.812737,2.096216 l 0.187263,-5.252839 h 2.2 l -0.374527,5.578312 v 0 c 5.549176,-0.830534 6.885547,-0.966527 12.187264,-2.547162 0,-4.166666 0.187263,-3.464483 0.187263,-7.63115 v 0 c 0.8,-0.9 1.5,-1.8 2.1,-2.8 0.3,2.3 2.2,4.1 4.6,4.1 h 0.5 c 2.5,0 4.6,-2.1 4.6,-4.6 v -0.7 -2 -15.3 c -0.2,-8.1 -4.1,-16.7 -14.8,-17.2 z m -33,17.2 v -1.5 c 1,-0.2 3.3,-0.6 5.7,0.1 v 0 5.8 c -2.3,-0.5 -4.5,-0.3 -5.7,0 z m 7.7,11.1 v -14.7 c 0,-7 5.7,-12.7 12.7,-12.7 h 4.7 c 7,0 12.7,5.7 12.7,12.7 v 2.2 0 12.7 0.6 h -30.1 z m 23.3,-35.9 v 2.6 c -7.3,-1.9 -14.3,-0.5 -16.4,0 v -2.6 c 0,-0.4 0,-0.8 0.1,-1.1 1.1,-0.3 8.7,-2.1 16.2,0 0.1,0.4 0.1,0.7 0.1,1.1 z m -16.4,4.7 c 0.7,-0.2 8.6,-2.2 16.4,0 v 3 c -1.8,-0.8 -3.8,-1.2 -5.8,-1.2 h -4.7 c -2.1,0 -4,0.4 -5.8,1.2 v -3 z m 25.3,18.7 c 0.8,-0.2 3.2,-0.7 5.7,-0.1 v 1.5 4.4 c -2.4,-0.5 -4.6,-0.2 -5.7,0.1 z m 5.5,-2.1 c -2.3,-0.4 -4.3,-0.1 -5.5,0.1 v -0.2 c 0,-4.6 -2.1,-8.8 -5.5,-11.5 3.8,0.6 9.7,3 11,11.6 z m -22.6,-29.5 c 3.3,0 6.2,2 7.5,4.9 -6.3,-1.5 -12.4,-0.5 -15,0 1.3,-2.9 4.2,-4.9 7.5,-4.9 z m -11.6,17.9 c -3.4,2.7 -5.5,6.8 -5.5,11.5 v 0.2 c -2.2,-0.5 -4.2,-0.3 -5.5,-0.1 1.3,-8.7 7.2,-11 11,-11.6 z m -11.2,21.6 c 1,-0.2 3.3,-0.7 5.7,0 v 8.7 h -5.7 z m 5.7,11.4 c 0,1.4 -1.2,2.6 -2.6,2.6 h -0.5 c -1.4,0 -2.6,-1.2 -2.6,-2.6 v -0.7 h 5.7 z m 14,13.2 c -9.048809,-4.256867 -7.990296,1.738615 -7.9,-8.1 2.2,1.7 5,2.7 7.9,2.8 v 0 z m 0.8,-7.2 c -6.1,0 -11.1,-4.2 -12.4,-9.9 h 29.6 c -1.3,5.7 -6.4,9.9 -12.4,9.9 z m 5.4,7.3 v -5.3 0 c 3,-0.1 5.7,-1.2 7.9,-2.8 l -0.187263,6.601892 c -2.466502,0.651467 -5.489865,0.664832 -7.712737,1.498108 z m 19.7,-13.3 c 0,1.4 -1.2,2.6 -2.6,2.6 h -0.5 c -1.4,0 -2.6,-1.2 -2.6,-2.6 v -0.7 h 5.7 z m -5.7,-2.7 v -3.9 -0.2 -4.6 c 0.8,-0.2 3.2,-0.7 5.7,-0.1 v 8.8 z" /><path
             inkscape:connector-curvature="0"
             id="path851"
             d="m 47.251695,47.289831 c -4.5,0 -8.2,3.7 -8.2,8.2 0,4.5 3.7,8.2 8.2,8.2 4.5,0 8.2,-3.7 8.2,-8.2 0,-4.5 -3.6,-8.2 -8.2,-8.2 z m 0,14.4 c -3.4,0 -6.2,-2.8 -6.2,-6.2 0,-3.4 2.8,-6.2 6.2,-6.2 3.4,0 6.2,2.8 6.2,6.2 0,3.4 -2.7,6.2 -6.2,6.2 z" /></g><g
           transform="matrix(0.69235905,0,0,0.69235905,76.610773,20.070082)"
           id="g1479"><g
             transform="translate(-50.10884,44.113501)"
             id="g831"><rect
               x="3"
               y="10"
               width="1"
               height="4"
               id="rect815" /><rect
               x="5"
               y="10"
               width="1"
               height="4"
               id="rect817" /><rect
               x="7"
               y="10"
               width="1"
               height="4"
               id="rect819" /><rect
               x="9"
               y="10"
               width="1"
               height="4"
               id="rect821" /><rect
               x="11"
               y="10"
               width="1"
               height="4"
               id="rect823" /><path
               inkscape:connector-curvature="0"
               d="m 2.5,9 h 10 C 12.776,9 13,8.776 13,8.5 13,8.224 12.776,8 12.5,8 H 2.5 C 2.224,8 2,8.224 2,8.5 2,8.776 2.224,9 2.5,9 Z"
               id="path825" /><path
               inkscape:connector-curvature="0"
               d="M 8,3.543 V 2 h 3 L 10,1 11,0 H 7 V 3.543 C 5.088,3.758 3.54,5.158 3.12,7 h 8.76 C 11.46,5.158 9.911,3.758 8,3.543 Z"
               id="path827" /><rect
               x="2"
               y="15"
               width="11"
               height="1"
               id="rect829" /></g></g></g></g><circle
       r="37.005363"
       cy="44.486794"
       cx="45.50502"
       id="path1498"
       style="opacity:1;fill:none;fill-opacity:1;stroke:#000000;stroke-width:1.39654589;stroke-linecap:square;stroke-linejoin:miter;stroke-miterlimit:4;stroke-dasharray:none;stroke-dashoffset:0;stroke-opacity:1;paint-order:fill markers stroke" /><path
       inkscape:connector-curvature="0"
       id="path2073"
       d=""
       style="fill:#000000;stroke-width:0.75" /></g></svg>