<?xml version="1.0" encoding="UTF-8" standalone="no"?>
<!-- Created with Inkscape (http://www.inkscape.org/) -->

<svg
   xmlns:dc="http://purl.org/dc/elements/1.1/"
   xmlns:cc="http://creativecommons.org/ns#"
   xmlns:rdf="http://www.w3.org/1999/02/22-rdf-syntax-ns#"
   xmlns:svg="http://www.w3.org/2000/svg"
   xmlns="http://www.w3.org/2000/svg"
   xmlns:sodipodi="http://sodipodi.sourceforge.net/DTD/sodipodi-0.dtd"
   xmlns:inkscape="http://www.inkscape.org/namespaces/inkscape"
   width="210mm"
   height="297mm"
   viewBox="0 0 210 297"
   version="1.1"
   id="svg14715"
   inkscape:version="0.92.2 (5c3e80d, 2017-08-06)"
   sodipodi:docname="idealish_pl.svg">
  <defs
     id="defs14709" />
  <sodipodi:namedview
     id="base"
     pagecolor="#ffffff"
     bordercolor="#666666"
     borderopacity="1.0"
     inkscape:pageopacity="0.0"
     inkscape:pageshadow="2"
     inkscape:zoom="0.98994949"
     inkscape:cx="207.55275"
     inkscape:cy="510.13039"
     inkscape:document-units="mm"
     inkscape:current-layer="layer1"
     showgrid="false"
     inkscape:window-width="1871"
     inkscape:window-height="1019"
     inkscape:window-x="49"
     inkscape:window-y="27"
     inkscape:window-maximized="1" />
  <metadata
     id="metadata14712">
    <rdf:RDF>
      <cc:Work
         rdf:about="">
        <dc:format>image/svg+xml</dc:format>
        <dc:type
           rdf:resource="http://purl.org/dc/dcmitype/StillImage" />
        <dc:title></dc:title>
      </cc:Work>
    </rdf:RDF>
  </metadata>
  <g
     inkscape:label="Layer 1"
     inkscape:groupmode="layer"
     id="layer1">
    <rect
       style="display:inline;opacity:1;fill:none;fill-opacity:1;stroke:#5fd3bc;stroke-width:3;stroke-linecap:square;stroke-linejoin:miter;stroke-miterlimit:4;stroke-dasharray:none;stroke-dashoffset:0;stroke-opacity:1;paint-order:stroke fill markers"
       id="rect3375-9-9-1"
       width="122.8068"
       height="50.598717"
       x="45.941822"
       y="120.51016" />
    <g
       style="display:inline;fill:#005544"
       id="g7922-4-0-3"
       transform="matrix(0.33752426,0,0,0.33752426,219.67372,9.9529656)">
      <g
         style="display:inline;fill:#005544"
         id="g3982-4-1-0-9-80"
         transform="translate(-507.97065,146.75298)">
        <g
           id="g409-91-3-2-6-9-9"
           style="opacity:1;fill:#005544;stroke:none;stroke-width:0;stroke-linecap:round;stroke-linejoin:round;stroke-miterlimit:4;stroke-dasharray:none;stroke-dashoffset:0;stroke-opacity:1;paint-order:stroke fill markers"
           transform="matrix(1.3225549,0,0,1.3225549,74.306363,190.63271)">
          <path
             inkscape:connector-curvature="0"
             id="path394-9-5-8-4-4-7"
             d="m 65.097317,33.219678 -0.326078,0.08423 c -0.179345,0.04632 -2.038151,0.558747 -4.130497,1.138946 -3.821549,1.059704 -4.696418,1.457296 -2.887163,1.312066 1.134449,-0.09106 2.188065,0.303985 2.416908,0.905889 0.07938,0.208798 0.144177,1.556038 0.144177,2.994131 0,2.434153 -0.01763,2.607524 -0.253733,2.508374 -1.639321,-0.688393 -1.706197,-0.702601 -3.369302,-0.7121 -1.399437,-0.008 -1.82858,0.04653 -2.676324,0.338998 -4.681471,1.615096 -7.249993,6.280991 -6.728269,12.22354 0.359315,4.09275 2.263288,6.97293 5.31337,8.037754 0.813705,0.284109 1.202891,0.333269 2.351794,0.29559 1.191522,-0.03907 1.509951,-0.10758 2.364714,-0.508498 1.092096,-0.512236 2.373844,-1.698408 2.718181,-2.515092 0.202279,-0.479748 0.208769,-0.457359 0.279569,0.958599 l 0.07235,1.449006 3.586861,0.03876 c 2.18681,0.02363 3.586861,-0.01455 3.586861,-0.09819 0,-0.07544 -0.345237,-0.237977 -0.767395,-0.360701 -0.81983,-0.238334 -1.292225,-0.633979 -1.54151,-1.29191 -0.105384,-0.278101 -0.154512,-4.608973 -0.154512,-13.603822 z m -8.239807,9.172567 c 0.156138,-0.0026 0.334663,0.0033 0.551389,0.0155 0.834228,0.04714 1.116941,0.13285 1.629357,0.492993 0.341021,0.239678 0.767736,0.65506 0.948261,0.92294 l 0.328147,0.486794 v 6.797516 c 0,7.293282 0.0095,7.190256 -0.749308,7.898744 -0.188005,0.17554 -0.583242,0.420267 -0.878501,0.543637 -0.607992,0.254039 -1.996655,0.27846 -2.647384,0.04651 -2.651289,-0.94506 -4.064669,-4.751824 -3.681428,-9.915676 0.277018,-3.732582 1.345782,-6.011719 3.258198,-6.947378 0.50429,-0.246534 0.772853,-0.333817 1.241269,-0.34158 z"
             style="fill:#005544;fill-opacity:1;stroke:none;stroke-width:0;stroke-linecap:round;stroke-linejoin:round;stroke-miterlimit:4;stroke-dasharray:none;stroke-dashoffset:0;stroke-opacity:1;paint-order:stroke fill markers" />
          <path
             inkscape:connector-curvature="0"
             id="path390-6-1-8-7-5-9"
             d="m 76.645966,41.386103 c -3.078967,-0.02039 -5.883865,1.719702 -7.349424,4.693254 -0.985975,2.000506 -1.201539,3.08353 -1.212329,6.086967 -0.0083,2.310016 0.02895,2.740638 0.324528,3.761528 0.942967,3.256944 3.051728,5.456015 5.97018,6.225976 1.015719,0.267989 3.047775,0.283626 3.985286,0.03049 2.9029,-0.78382 4.751964,-2.848787 5.648232,-6.307624 0.351452,-1.356291 0.08342,-1.433502 -0.581877,-0.167431 -1.019447,1.940018 -2.412079,2.762821 -4.673097,2.759522 -0.694462,-9.5e-4 -1.5987,-0.09122 -2.00918,-0.200506 -2.849655,-0.758749 -4.696139,-3.368974 -5.107699,-7.220747 l -0.104904,-0.982887 h 6.297292 6.29729 l -0.09405,-1.133779 C 83.83538,46.5227 83.080288,44.675898 81.775369,43.398384 80.746878,42.391512 79.828771,41.900681 78.377642,41.581958 77.795408,41.454075 77.216143,41.389879 76.645966,41.386103 Z m -0.969968,1.019577 c 0.778068,-0.02981 1.556411,0.228132 2.201934,0.811319 1.001919,0.905184 1.459659,2.205971 1.657778,4.710308 l 0.100254,1.26814 H 75.560243 71.48504 l 0.08526,-0.905888 c 0.122121,-1.297168 0.44998,-2.676875 0.83561,-3.514514 0.677315,-1.471226 1.973305,-2.319676 3.270083,-2.369365 z"
             style="fill:#005544;fill-opacity:1;stroke:none;stroke-width:0;stroke-linecap:round;stroke-linejoin:round;stroke-miterlimit:4;stroke-dasharray:none;stroke-dashoffset:0;stroke-opacity:1;paint-order:stroke fill markers" />
          <path
             inkscape:connector-curvature="0"
             id="path386-2-7-9-48-1-93"
             d="m 93.689886,41.396957 c -1.427504,0.0075 -2.849079,0.334981 -3.98322,0.947229 -0.89779,0.484661 -2.079297,1.631614 -2.605527,2.52956 -0.451588,0.770564 -1.121378,2.691339 -1.121378,3.215309 0,0.618839 0.267237,0.568005 0.442867,-0.08423 0.611759,-2.271916 2.346817,-3.72019 4.614188,-3.851444 3.347805,-0.193805 4.796838,1.201187 5.041038,4.852416 0.0883,1.320141 0.0858,1.333463 -0.25838,1.406633 -0.191073,0.04062 -1.332036,0.271717 -2.535766,0.513662 -3.471862,0.697823 -5.178957,1.474121 -6.558256,2.98328 -0.989531,1.082715 -1.367594,2.098604 -1.374593,3.691247 -0.0063,1.438461 0.273289,2.214436 1.146699,3.181202 0.51716,0.572429 1.560095,1.214358 2.380734,1.465543 0.641221,0.196279 2.811309,0.146251 3.58221,-0.08268 1.202444,-0.357087 2.414299,-1.265021 3.118673,-2.336808 l 0.617529,-0.939993 0.100767,0.585494 c 0.23185,1.348925 1.155324,2.426925 2.370908,2.767271 0.953414,0.266939 2.446311,0.118886 3.331051,-0.33021 1.25939,-0.639276 2.41448,-2.176785 2.6293,-3.500562 0.12294,-0.757605 -0.14822,-0.644546 -0.5824,0.24288 -0.43082,0.880567 -0.97886,1.267105 -1.79627,1.267105 -0.55311,0 -0.90884,-0.240721 -1.28571,-0.869714 -0.0716,-0.119563 -0.16742,-2.891261 -0.21342,-6.159315 -0.0726,-5.157311 -0.11814,-6.047293 -0.34262,-6.739123 -0.855537,-2.636713 -2.331778,-4.041251 -4.795028,-4.563028 -0.624874,-0.132366 -1.274532,-0.19513 -1.923396,-0.191719 z m 2.288228,9.827307 c 0.094,0 0.14625,1.196893 0.14625,3.356382 0,3.328485 -0.003,3.362124 -0.366389,3.98167 -0.220779,0.376735 -0.625703,0.777081 -1.020093,1.008208 -0.950241,0.556876 -2.233052,0.630613 -3.098001,0.178284 -0.875879,-0.458041 -1.40094,-1.171109 -1.686719,-2.290818 -0.58216,-2.280952 0.307708,-4.403561 2.196248,-5.238956 0.537202,-0.237628 3.451368,-0.99477 3.828704,-0.99477 z"
             style="fill:#005544;fill-opacity:1;stroke:none;stroke-width:0;stroke-linecap:round;stroke-linejoin:round;stroke-miterlimit:4;stroke-dasharray:none;stroke-dashoffset:0;stroke-opacity:1;paint-order:stroke fill markers" />
          <path
             inkscape:connector-curvature="0"
             id="path382-5-4-2-58-0-2"
             d="m 131.20266,62.102751 c -1.40226,-0.296172 -3.21994,-1.012279 -3.79381,-1.49463 l -0.38807,-0.326199 0.33365,-1.811556 c 0.18351,-0.996356 0.41295,-2.284371 0.50987,-2.86226 0.21846,-1.302666 0.48222,-1.380359 0.71251,-0.209869 0.36715,1.866211 1.82429,4.039411 3.28073,4.892942 1.33551,0.782658 2.95466,1.017028 4.43622,0.642139 1.31597,-0.332986 2.29011,-1.548572 2.29687,-2.866148 0.008,-1.605346 -0.71098,-2.241553 -4.20887,-3.723131 -3.71921,-1.575318 -4.3261,-1.881914 -5.14753,-2.60048 -1.39184,-1.217552 -2.03083,-3.159593 -1.67499,-5.09076 0.66721,-3.621118 4.01383,-5.622775 8.64262,-5.169274 1.69514,0.166082 4.13952,0.84239 4.70403,1.301506 l 0.30846,0.250873 -0.52909,2.463714 c -0.66633,3.102807 -0.77123,3.257409 -1.17112,1.726058 -0.54467,-2.085769 -1.80723,-3.670678 -3.40308,-4.271918 -1.32912,-0.500755 -3.09887,-0.496586 -4.11111,0.0097 -1.20767,0.60401 -1.73361,1.752065 -1.39043,3.035172 0.37097,1.387008 1.01748,1.837453 4.79595,3.34151 2.79183,1.111311 3.71206,1.59628 4.54704,2.39633 0.99547,0.953823 1.42093,1.914614 1.50538,3.39945 0.19998,3.516346 -1.95217,6.296585 -5.44755,7.037407 -1.30089,0.275714 -3.30767,0.246261 -4.80768,-0.07056 z"
             style="fill:#005544;fill-opacity:1;stroke:none;stroke-width:0;stroke-linecap:round;stroke-linejoin:round;stroke-miterlimit:4;stroke-dasharray:none;stroke-dashoffset:0;stroke-opacity:1;paint-order:stroke fill markers" />
          <path
             id="path380-4-3-8-2-3-4"
             d="m 35.96059,61.682465 c 0,-0.06664 0.382678,-0.227555 0.850393,-0.35759 1.074464,-0.29873 1.685777,-0.938175 1.857145,-1.942615 0.06517,-0.381977 0.118488,-5.618317 0.118488,-11.636313 0,-9.842454 -0.02394,-10.994485 -0.238237,-11.466165 -0.305565,-0.672534 -1.027523,-1.219278 -1.899398,-1.438426 -0.378618,-0.09517 -0.688391,-0.230503 -0.688391,-0.300746 0,-0.07141 2.396231,-0.127718 5.434668,-0.127718 5.048721,0 6.280208,0.09055 4.963666,0.365002 -0.870341,0.181435 -1.709483,0.77815 -2.002845,1.424234 -0.260152,0.572953 -0.273462,1.13728 -0.275725,11.688748 -0.0016,7.298977 0.04957,11.273753 0.14965,11.634154 0.234019,0.842702 0.906926,1.508011 1.814607,1.794137 0.431926,0.136154 0.785321,0.300855 0.785321,0.366004 0,0.06516 -2.445606,0.118461 -5.434674,0.118461 -2.989068,0 -5.434668,-0.0545 -5.434668,-0.121167 z"
             style="fill:#005544;fill-opacity:1;stroke:none;stroke-width:0;stroke-linecap:round;stroke-linejoin:round;stroke-miterlimit:4;stroke-dasharray:none;stroke-dashoffset:0;stroke-opacity:1;paint-order:stroke fill markers"
             inkscape:connector-curvature="0" />
          <path
             inkscape:connector-curvature="0"
             id="path378-499-1-8-6-7-3"
             d="m 103.84672,61.626745 c 0.0324,-0.09729 0.30085,-0.22714 0.59649,-0.288564 0.81158,-0.168618 1.36827,-0.506611 1.61259,-0.979058 0.31905,-0.616982 0.33292,-23.076252 0.0147,-23.837822 -0.24765,-0.592716 -0.58652,-0.791357 -1.54327,-0.904669 -0.43493,-0.05149 -0.70429,-0.150187 -0.67239,-0.2463 0.043,-0.129514 5.24205,-1.695444 6.80474,-2.049562 l 0.39855,-0.09031 V 46.626068 60.02167 l 0.32969,0.489242 c 0.25976,0.385443 0.5211,0.546393 1.23186,0.758634 0.49619,0.148171 0.90216,0.328954 0.90216,0.401739 0,0.07722 -2.02741,0.132346 -4.86705,0.132346 -3.76651,0 -4.85371,-0.03999 -4.80809,-0.176883 z"
             style="fill:#005544;fill-opacity:1;stroke:none;stroke-width:0;stroke-linecap:round;stroke-linejoin:round;stroke-miterlimit:4;stroke-dasharray:none;stroke-dashoffset:0;stroke-opacity:1;paint-order:stroke fill markers" />
          <path
             inkscape:connector-curvature="0"
             id="path376-36-4-8-06-8-7"
             d="m 115.26096,61.666185 c 0,-0.07558 0.39317,-0.247745 0.87372,-0.382578 1.0394,-0.291643 1.53084,-0.791434 1.66253,-1.690784 0.0496,-0.338381 0.0698,-3.713002 0.045,-7.499157 -0.0494,-7.538808 -0.0499,-7.543485 -0.90671,-7.954142 -0.23332,-0.111828 -0.70554,-0.235032 -1.04939,-0.273785 -0.34384,-0.03878 -0.62517,-0.116763 -0.62517,-0.173351 0,-0.08382 6.86342,-2.033289 7.15854,-2.033289 0.0483,0 0.0877,4.002634 0.0877,8.894743 0,4.892109 0.0406,9.097617 0.0902,9.345577 0.15812,0.790573 0.77018,1.232785 2.11993,1.531624 0.2192,0.04853 0.39854,0.152214 0.39854,0.230404 0,0.09015 -1.80289,0.142163 -4.92743,0.142163 -3.00911,0 -4.92744,-0.05352 -4.92744,-0.137425 z"
             style="fill:#005544;fill-opacity:1;stroke:none;stroke-width:0;stroke-linecap:round;stroke-linejoin:round;stroke-miterlimit:4;stroke-dasharray:none;stroke-dashoffset:0;stroke-opacity:1;paint-order:stroke fill markers" />
          <path
             inkscape:connector-curvature="0"
             id="path374-05-6-6-64-8-1"
             d="m 143.52124,61.661285 c 0,-0.07819 0.17935,-0.180537 0.39855,-0.227435 1.18748,-0.254084 1.65808,-0.530192 1.93209,-1.1336 0.25824,-0.568687 0.2714,-1.15248 0.26665,-11.829858 -0.004,-8.318454 -0.0498,-11.359701 -0.17798,-11.725316 -0.2337,-0.66699 -0.7504,-1.015691 -1.66565,-1.124085 -0.42975,-0.05089 -0.74196,-0.15642 -0.7137,-0.241205 0.0399,-0.119699 6.68095,-2.105291 7.09758,-2.12209 0.0598,-0.0022 0.11173,2.685775 0.11544,5.973754 l 0.007,5.978137 0.36515,-0.701795 c 0.79961,-1.536779 2.51415,-2.70011 4.47434,-3.035878 2.02566,-0.346981 4.45365,0.402675 5.50322,1.699169 1.31163,1.620179 1.37712,2.097545 1.38017,10.059915 0.003,7.448961 -0.0158,7.312769 1.07622,7.841421 0.33659,0.162944 0.71649,0.296254 0.84421,0.296254 0.3379,0 0.69072,0.155976 0.69072,0.305358 0,0.07333 -2.07277,0.129416 -4.78251,0.129416 -2.66223,0 -4.78251,-0.05662 -4.78251,-0.127718 0,-0.07024 0.30144,-0.203619 0.66985,-0.296391 0.37846,-0.09529 0.85356,-0.352371 1.09214,-0.590953 l 0.42228,-0.422285 -0.0414,-7.143483 -0.0414,-7.143483 -0.40929,-0.833506 c -0.58189,-1.184983 -1.34835,-1.622293 -2.84739,-1.624593 -1.20817,-0.0016 -1.75945,0.208686 -2.58923,0.988852 -1.07014,1.006144 -1.03801,0.750527 -1.03801,8.256815 0,3.699654 0.0406,6.929523 0.0902,7.177482 0.12436,0.621807 0.6944,1.145705 1.39802,1.284854 0.32485,0.06424 0.61745,0.197266 0.65024,0.295608 0.0464,0.139352 -0.98234,0.178806 -4.66253,0.178806 -2.99032,0 -4.72213,-0.05215 -4.72213,-0.142167 z"
             style="fill:#005544;fill-opacity:1;stroke:none;stroke-width:0;stroke-linecap:round;stroke-linejoin:round;stroke-miterlimit:4;stroke-dasharray:none;stroke-dashoffset:0;stroke-opacity:1;paint-order:stroke fill markers" />
          <path
             inkscape:connector-curvature="0"
             id="path35-0-9-8-6-6-2"
             d="m 118.61861,39.174073 c -0.83692,-0.414266 -1.36013,-1.220817 -1.44342,-2.225088 -0.27833,-3.356321 4.59575,-4.11731 5.46386,-0.853065 0.60455,2.273213 -1.85001,4.152486 -4.02044,3.078153 z"
             style="fill:#005544;fill-opacity:1;stroke:none;stroke-width:0;stroke-linecap:round;stroke-linejoin:round;stroke-miterlimit:4;stroke-dasharray:none;stroke-dashoffset:0;stroke-opacity:1;paint-order:stroke fill markers" />
        </g>
      </g>
      <path
         id="rect1370-6-2-2-8-2-0-2"
         d="m -443.8999,369.13213 c 10e-6,0.002 -3.6e-4,0.004 -2.4e-4,0.006 l 1e-5,59.69272 c 0,0.18124 0.009,0.3603 0.0276,0.53667 0.0182,0.17638 0.0454,0.35006 0.0809,0.52073 0.0356,0.17067 0.0796,0.33828 0.13169,0.50237 0.0521,0.16408 0.1122,0.32468 0.17985,0.48133 0.0677,0.15664 0.1428,0.30934 0.22516,0.45769 0.0823,0.14833 0.17188,0.29237 0.26806,0.43154 0.0962,0.13919 0.19906,0.27354 0.30816,0.40268 0.10909,0.12915 0.22439,0.25305 0.34553,0.37129 0.12115,0.11826 0.24806,0.23084 0.38037,0.33733 0.13231,0.10651 0.26999,0.20696 0.41257,0.30085 0.14258,0.0939 0.29011,0.18117 0.44208,0.26156 0.15198,0.0804 0.30841,0.15384 0.46889,0.21988 0.16048,0.066 0.32499,0.12459 0.4931,0.17543 0.1681,0.0508 0.33973,0.0939 0.5146,0.12855 0.17484,0.0348 0.35287,0.0613 0.53357,0.0791 0.18069,0.0178 0.36409,0.0269 0.54974,0.0269 l 23.38526,-6e-5 2.05574,-0.55082 c 2.86926,-0.76885 4.57504,-3.64254 3.82457,-6.44331 l -15.4496,-57.65873 c -0.75047,-2.80077 -3.66457,-4.43659 -6.53385,-3.66777 z"
         style="display:inline;opacity:0.97000002;fill:#005544;fill-opacity:1;stroke:none;stroke-width:1.85802746;stroke-linecap:round;stroke-linejoin:round;stroke-miterlimit:4;stroke-dasharray:none;stroke-dashoffset:0;stroke-opacity:1;paint-order:stroke fill markers"
         inkscape:connector-curvature="0" />
      <path
         inkscape:connector-curvature="0"
         id="path1622-6-3-8-4-0"
         d="m -399.37662,372.96972 -15.03681,4.02921 c -2.86929,0.76882 -4.57504,3.64251 -3.82457,6.44328 l 11.63919,43.438 h 7.22219 z"
         style="display:inline;opacity:0.97000002;fill:#005544;fill-opacity:1;stroke:none;stroke-width:1.85802746;stroke-linecap:round;stroke-linejoin:round;stroke-miterlimit:4;stroke-dasharray:none;stroke-dashoffset:0;stroke-opacity:1;paint-order:stroke fill markers" />
    </g>
  </g>
</svg>
